<svg width="21" height="21" viewBox="0 0 21 21" fill="none" xmlns="http://www.w3.org/2000/svg">
<path d="M9.75 10.5C9.75 10.9142 10.0858 11.25 10.5 11.25C10.9142 11.25 11.25 10.9142 11.25 10.5C11.25 10.0858 10.9142 9.75 10.5 9.75C10.0858 9.75 9.75 10.0858 9.75 10.5Z" stroke="#667085" stroke-width="1.5" stroke-linecap="round" stroke-linejoin="round"/>
<path d="M9.75 16.333C9.75 16.7472 10.0858 17.083 10.5 17.083C10.9142 17.083 11.25 16.7472 11.25 16.333C11.25 15.9188 10.9142 15.583 10.5 15.583C10.0858 15.583 9.75 15.9188 9.75 16.333Z" stroke="#667085" stroke-width="1.5" stroke-linecap="round" stroke-linejoin="round"/>
<path d="M9.75 4.66699C9.75 5.08121 10.0858 5.41699 10.5 5.41699C10.9142 5.41699 11.25 5.08121 11.25 4.66699C11.25 4.25278 10.9142 3.91699 10.5 3.91699C10.0858 3.91699 9.75 4.25278 9.75 4.66699Z" stroke="#667085" stroke-width="1.5" stroke-linecap="round" stroke-linejoin="round"/>
</svg>
