<svg width="20" height="21" viewBox="0 0 20 21" fill="none" xmlns="http://www.w3.org/2000/svg">
<path d="M10.6 19.9132H12.1C12.7627 19.9132 13.3 19.3759 13.3 18.7132C13.3 18.0505 12.7627 17.5132 12.1 17.5132H1.89995C1.23725 17.5132 0.699951 18.0505 0.699951 18.7132C0.699951 19.3759 1.23725 19.9132 1.89995 19.9132H8.79995" stroke="white" stroke-miterlimit="10" stroke-linecap="round" stroke-linejoin="round"/>
<path d="M2.19995 17.5134V1.91338C2.19995 1.25068 2.73725 0.713379 3.39995 0.713379H10.6C11.2627 0.713379 11.8 1.25068 11.8 1.91338V17.5134" stroke="white" stroke-miterlimit="10" stroke-linecap="round" stroke-linejoin="round"/>
<path d="M8.8 7.91318H5.2C4.5373 7.91318 4 7.37588 4 6.71318V3.71318C4 3.05048 4.5373 2.51318 5.2 2.51318H8.8C9.4627 2.51318 10 3.05048 10 3.71318V6.71318C10 7.37588 9.4627 7.91318 8.8 7.91318Z" stroke="white" stroke-miterlimit="10" stroke-linecap="round" stroke-linejoin="round"/>
<path d="M11.8 10.0134H14.5C15.1627 10.0134 15.7 10.5507 15.7 11.2134V13.7634C15.7 14.3433 16.1701 14.8134 16.75 14.8134C17.3299 14.8134 17.8 14.3433 17.8 13.7634V8.21338" stroke="white" stroke-miterlimit="10" stroke-linecap="round" stroke-linejoin="round"/>
<path d="M16.3 7.31328V7.01328C16.3 6.51618 16.7029 6.11328 17.2 6.11328H18.4C18.8971 6.11328 19.3 6.51618 19.3 7.01328V7.31328C19.3 7.81038 18.8971 8.21328 18.4 8.21328H17.2C16.7029 8.21328 16.3 7.81038 16.3 7.31328Z" stroke="white" stroke-miterlimit="10" stroke-linecap="round" stroke-linejoin="round"/>
<path d="M16.9001 5.21338V6.16468" stroke="white" stroke-miterlimit="10" stroke-linecap="round" stroke-linejoin="round"/>
<path d="M18.7 5.21338V6.16468" stroke="white" stroke-miterlimit="10" stroke-linecap="round" stroke-linejoin="round"/>
</svg>
