<svg width="24" height="25" viewBox="0 0 24 25" fill="none" xmlns="http://www.w3.org/2000/svg">
<path opacity="0.4" d="M12.0865 22.0137C11.9627 22.0137 11.8388 21.9852 11.7271 21.9274L8.12599 20.0633C7.10415 19.5338 6.30481 18.9395 5.68063 18.2472C4.31449 16.7332 3.5544 14.7897 3.54232 12.7736L3.50004 6.13793C3.495 5.37209 3.98931 4.6847 4.72826 4.42583L11.3405 2.12046C11.7331 1.98024 12.1711 1.97827 12.5707 2.1136L19.2081 4.34051C19.9511 4.5886 20.4535 5.27109 20.4575 6.03595L20.4998 12.6765C20.5129 14.6897 19.779 16.641 18.434 18.1717C17.8168 18.8738 17.0245 19.4769 16.0128 20.0162L12.4439 21.9225C12.3331 21.9823 12.2103 22.0127 12.0865 22.0137Z" fill="white"/>
<path d="M11.3191 14.3346C11.1258 14.3356 10.9325 14.2659 10.7835 14.1228L8.86671 12.2793C8.57073 11.9929 8.56771 11.5281 8.86067 11.2398C9.15363 10.9506 9.63183 10.9476 9.92882 11.233L11.308 12.5587L14.6756 9.23846C14.9695 8.94919 15.4477 8.94625 15.7437 9.2316C16.0407 9.51793 16.0437 9.98371 15.7508 10.271L11.8517 14.1159C11.7047 14.261 11.5124 14.3336 11.3191 14.3346Z" fill="white"/>
</svg>
