<svg width="24" height="25" viewBox="0 0 24 25" fill="none" xmlns="http://www.w3.org/2000/svg">
<path opacity="0.4" d="M16.191 2.01318H7.81C4.77 2.01318 3 3.79318 3 6.84318V17.1732C3 20.2732 4.77 22.0132 7.81 22.0132H16.191C19.28 22.0132 21 20.2732 21 17.1732V6.84318C21 3.79318 19.28 2.01318 16.191 2.01318Z" fill="white"/>
<path fill-rule="evenodd" clip-rule="evenodd" d="M8.08094 6.66309V6.67309C7.64994 6.67309 7.30094 7.02309 7.30094 7.45309C7.30094 7.88309 7.64994 8.23309 8.08094 8.23309H11.0699C11.5009 8.23309 11.8509 7.88309 11.8509 7.44209C11.8509 7.01309 11.5009 6.66309 11.0699 6.66309H8.08094ZM15.9209 12.7531H8.08094C7.64994 12.7531 7.30094 12.4031 7.30094 11.9731C7.30094 11.5431 7.64994 11.1921 8.08094 11.1921H15.9209C16.3509 11.1921 16.7009 11.5431 16.7009 11.9731C16.7009 12.4031 16.3509 12.7531 15.9209 12.7531ZM15.9209 17.3231H8.08094C7.78094 17.3631 7.49094 17.2131 7.33094 16.9631C7.17094 16.7031 7.17094 16.3731 7.33094 16.1231C7.49094 15.8631 7.78094 15.7231 8.08094 15.7531H15.9209C16.3199 15.7931 16.6209 16.1331 16.6209 16.5431C16.6209 16.9421 16.3199 17.2831 15.9209 17.3231Z" fill="white"/>
</svg>
