<svg width="24" height="16" viewBox="0 0 24 16" fill="none" xmlns="http://www.w3.org/2000/svg">
<g id="Group">
<path id="Vector" d="M12.2453 11.5552C12.5835 11.5552 12.8389 11.4369 13.0261 11.1935C13.2187 10.9431 13.3164 10.6108 13.3164 10.2058V9.20713C13.3164 8.80997 13.2176 8.48165 13.0228 8.23134C12.8331 7.98751 12.5775 7.86902 12.2416 7.86902C11.9065 7.86902 11.6551 7.98642 11.4729 8.22787C11.2848 8.4773 11.1895 8.80676 11.1895 9.20718V10.2058C11.1895 10.6111 11.286 10.9436 11.4765 11.1941C11.661 11.4371 11.9125 11.5552 12.2453 11.5552Z" fill="#888EA0"/>
<path id="Vector_2" d="M20.7569 7.43269C20.9291 6.88801 21.0161 6.32228 21.0161 5.74686C21.0161 2.66088 18.5055 0.150269 15.4196 0.150269C13.5478 0.150269 11.7855 1.10465 10.7542 2.65876C9.96118 2.09257 9.00229 1.78348 8.02417 1.78348C5.43358 1.78348 3.32598 3.89108 3.32598 6.48173C3.32598 6.78885 3.35578 7.09462 3.41472 7.39412C1.44982 7.79491 0 9.54739 0 11.5783C0 13.9335 1.91612 15.8497 4.27134 15.8497H19.7287C22.0839 15.8497 24 13.9335 24 11.5783C24 9.59782 22.6529 7.89889 20.7569 7.43269ZM9.10648 8.84871L9.0632 8.97897H7.7679V8.84938C7.7679 8.52168 7.6915 8.2708 7.54076 8.10363C7.3935 7.94041 7.15278 7.85763 6.82523 7.85763C6.53693 7.85763 6.3144 7.97151 6.1449 8.2058C5.9683 8.44973 5.87878 8.76867 5.87878 9.15386V10.2515C5.87878 10.6404 5.97276 10.9611 6.15812 11.2046C6.33768 11.4405 6.57441 11.5553 6.88184 11.5553C7.18642 11.5553 7.41112 11.4765 7.54962 11.3211C7.69191 11.1614 7.76407 10.9128 7.76407 10.5824V10.4528H9.05553L9.09891 10.5829L9.09922 10.6028C9.10985 11.2298 8.91376 11.7361 8.51639 12.1079C8.12204 12.4768 7.57207 12.6639 6.88179 12.6639C6.18642 12.6639 5.61277 12.436 5.17663 11.9865C4.74148 11.5383 4.52087 10.9553 4.52087 10.2539V9.16283C4.52087 8.46487 4.73593 7.8824 5.16015 7.4317C5.58654 6.97872 6.14672 6.74904 6.82518 6.74904C7.5348 6.74904 8.10021 6.93632 8.50566 7.30574C8.91516 7.6789 9.11737 8.19139 9.10674 8.82896L9.10648 8.84871ZM14.6778 10.201C14.6778 10.9072 14.4502 11.5003 14.0013 11.9637C13.5514 12.4283 12.9605 12.6638 12.2451 12.6638C11.5345 12.6638 10.948 12.4282 10.5018 11.9633C10.0569 11.5 9.83134 10.907 9.83134 10.201V9.21181C9.83134 8.50846 10.0561 7.91625 10.4996 7.45166C10.9446 6.9854 11.5306 6.74893 12.2413 6.74893C12.9566 6.74893 13.5481 6.98515 13.9995 7.45098C14.4496 7.91573 14.6778 8.50815 14.6778 9.21181V10.201ZM19.5239 12.5845H15.5119V11.6828L17.325 9.73881C17.5712 9.45631 17.7498 9.21357 17.8529 9.02054C17.9505 8.83782 18 8.66843 18 8.51712C18 8.31533 17.9489 8.15687 17.8437 8.03257C17.7441 7.91485 17.6029 7.85763 17.4122 7.85763C17.1987 7.85763 17.0428 7.92563 16.9355 8.06554C16.8218 8.21394 16.7641 8.41926 16.7641 8.67568V8.80527H15.469L15.4256 8.67573L15.4251 8.6563C15.4116 8.12629 15.5886 7.67092 15.9513 7.30294C16.3135 6.93533 16.805 6.74893 17.4122 6.74893C18.0092 6.74893 18.4875 6.90895 18.8341 7.22447C19.1841 7.5432 19.3616 7.97177 19.3616 8.4982C19.3616 8.85436 19.2625 9.18745 19.0669 9.48819C18.8812 9.77385 18.5725 10.1512 18.1493 10.6098L17.3538 11.4759H19.5239V12.5845H19.5239Z" fill="#888EA0"/>
</g>
</svg>
