<svg width="20" height="21" viewBox="0 0 20 21" fill="none" xmlns="http://www.w3.org/2000/svg">
<g id="Group">
<path id="Vector" d="M10.6 19.9H12.1C12.7627 19.9 13.3 19.3627 13.3 18.7C13.3 18.0373 12.7627 17.5 12.1 17.5H1.89995C1.23725 17.5 0.699951 18.0373 0.699951 18.7C0.699951 19.3627 1.23725 19.9 1.89995 19.9H8.79995" stroke="#8A92A6" stroke-miterlimit="10" stroke-linecap="round" stroke-linejoin="round"/>
<path id="Vector_2" d="M2.19995 17.5V1.89995C2.19995 1.23725 2.73725 0.699951 3.39995 0.699951H10.6C11.2627 0.699951 11.8 1.23725 11.8 1.89995V17.5" stroke="#8A92A6" stroke-miterlimit="10" stroke-linecap="round" stroke-linejoin="round"/>
<path id="Vector_3" d="M8.8 7.9H5.2C4.5373 7.9 4 7.3627 4 6.7V3.7C4 3.0373 4.5373 2.5 5.2 2.5H8.8C9.4627 2.5 10 3.0373 10 3.7V6.7C10 7.3627 9.4627 7.9 8.8 7.9Z" fill="#BFC3CD" stroke="#8A92A6" stroke-miterlimit="10" stroke-linecap="round" stroke-linejoin="round"/>
<g id="Group_2">
<path id="Vector_4" d="M11.8 9.99995H14.5C15.1627 9.99995 15.7 10.5373 15.7 11.2V13.75C15.7 14.3299 16.1701 14.8 16.75 14.8C17.3299 14.8 17.8 14.3299 17.8 13.75V8.19995" stroke="#8A92A6" stroke-miterlimit="10" stroke-linecap="round" stroke-linejoin="round"/>
<g id="Group_3">
<path id="Vector_5" d="M16.3 7.29985V6.99985C16.3 6.50275 16.7029 6.09985 17.2 6.09985H18.4C18.8971 6.09985 19.3 6.50275 19.3 6.99985V7.29985C19.3 7.79695 18.8971 8.19985 18.4 8.19985H17.2C16.7029 8.19985 16.3 7.79695 16.3 7.29985Z" stroke="#8A92A6" stroke-miterlimit="10" stroke-linecap="round" stroke-linejoin="round"/>
<path id="Vector_6" d="M16.9001 5.19995V6.15125" stroke="#8A92A6" stroke-miterlimit="10" stroke-linecap="round" stroke-linejoin="round"/>
<path id="Vector_7" d="M18.7 5.19995V6.15125" stroke="#8A92A6" stroke-miterlimit="10" stroke-linecap="round" stroke-linejoin="round"/>
</g>
</g>
</g>
</svg>
