<svg width="24" height="24" viewBox="0 0 24 24" fill="none" xmlns="http://www.w3.org/2000/svg">
<g id="Iconly/Bulk/recycling-battery" clip-path="url(#clip0_8_547)">
<path id="Vector" d="M17.5197 2.74984H16.4394V1.10466C16.4394 0.495553 15.9439 0 15.3348 0H8.66564C8.05653 0 7.56098 0.495553 7.56098 1.10466V2.74984H6.48073C5.56706 2.74984 4.82373 3.49317 4.82373 4.40684V22.343C4.82373 23.2567 5.56706 24 6.48073 24H17.5197C18.4334 24 19.1767 23.2567 19.1767 22.343V4.40684C19.1767 3.49317 18.4334 2.74984 17.5197 2.74984ZM15.0928 17.3577C13.6002 18.9451 10.5714 18.8451 8.6889 19.1514C8.80422 19.0123 8.90873 18.8585 9.01599 18.6997C9.4758 18.0189 10.1056 17.0866 12.0384 16.7243C12.4881 16.64 12.7843 16.2071 12.7 15.7573C12.6158 15.3076 12.1826 15.0113 11.7331 15.0957C9.11994 15.5854 8.1591 17.008 7.64294 17.7722C7.55424 17.9035 7.43339 18.0824 7.37965 18.1326C7.36827 18.1408 7.35794 18.1499 7.34712 18.1586C7.24311 16.6634 7.74916 14.1964 10.6227 13.0206C14.7078 11.3491 15.6027 10.9056 16.0063 10.6832C16.4099 10.4608 17.657 14.6306 15.0928 17.3577ZM17.5197 7.12829H6.48073V4.40684H17.5197V7.12829Z" fill="#888EA0"/>
</g>
<defs>
<clipPath id="clip0_8_547">
<rect width="24" height="24" fill="white"/>
</clipPath>
</defs>
</svg>
