<svg width="24" height="25" viewBox="0 0 24 25" fill="none" xmlns="http://www.w3.org/2000/svg">
<path d="M12.6 21.9132H14.1C14.7627 21.9132 15.3 21.3759 15.3 20.7132C15.3 20.0505 14.7627 19.5132 14.1 19.5132H3.89995C3.23725 19.5132 2.69995 20.0505 2.69995 20.7132C2.69995 21.3759 3.23725 21.9132 3.89995 21.9132H10.8" stroke="#8A92A6" stroke-miterlimit="10" stroke-linecap="round" stroke-linejoin="round"/>
<path d="M4.19995 19.5131V3.91313C4.19995 3.25043 4.73725 2.71313 5.39995 2.71313H12.6C13.2627 2.71313 13.8 3.25043 13.8 3.91313V19.5131" stroke="#8A92A6" stroke-miterlimit="10" stroke-linecap="round" stroke-linejoin="round"/>
<path d="M10.8 9.91318H7.2C6.5373 9.91318 6 9.37588 6 8.71318V5.71318C6 5.05048 6.5373 4.51318 7.2 4.51318H10.8C11.4627 4.51318 12 5.05048 12 5.71318V8.71318C12 9.37588 11.4627 9.91318 10.8 9.91318Z" stroke="#BFC3CD" stroke-miterlimit="10" stroke-linecap="round" stroke-linejoin="round"/>
<path d="M13.7999 12.0131H16.4999C17.1626 12.0131 17.6999 12.5504 17.6999 13.2131V15.7631C17.6999 16.343 18.17 16.8131 18.7499 16.8131C19.3298 16.8131 19.7999 16.343 19.7999 15.7631V10.2131" stroke="#8A92A6" stroke-miterlimit="10" stroke-linecap="round" stroke-linejoin="round"/>
<path d="M18.2999 9.31304V9.01304C18.2999 8.51594 18.7028 8.11304 19.1999 8.11304H20.3999C20.897 8.11304 21.2999 8.51594 21.2999 9.01304V9.31304C21.2999 9.81014 20.897 10.213 20.3999 10.213H19.1999C18.7028 10.213 18.2999 9.81014 18.2999 9.31304Z" stroke="#8A92A6" stroke-miterlimit="10" stroke-linecap="round" stroke-linejoin="round"/>
<path d="M18.8999 7.21313V8.16443" stroke="#8A92A6" stroke-miterlimit="10" stroke-linecap="round" stroke-linejoin="round"/>
<path d="M20.7 7.21313V8.16443" stroke="#8A92A6" stroke-miterlimit="10" stroke-linecap="round" stroke-linejoin="round"/>
</svg>
