<svg width="24" height="25" viewBox="0 0 24 25" fill="none" xmlns="http://www.w3.org/2000/svg">
<path opacity="0.4" d="M4.72276 21.1804C4.70976 21.1804 4.69776 21.1804 4.68376 21.1794C4.36876 21.1634 4.05976 21.0954 3.76576 20.9764C2.31876 20.3884 1.62076 18.7354 2.20776 17.2894L9.52876 4.46343C9.78076 4.00743 10.1628 3.62543 10.6288 3.36743C11.9938 2.61143 13.7198 3.10843 14.4748 4.47243L21.7478 17.2004C21.9098 17.5814 21.9788 17.8914 21.9958 18.2074C22.0348 18.9634 21.7768 19.6884 21.2708 20.2494C20.7648 20.8104 20.0698 21.1414 19.3148 21.1794L4.79476 21.1804H4.72276Z" fill="#8A92A6"/>
<path fill-rule="evenodd" clip-rule="evenodd" d="M11.1245 10.0339C11.1245 9.55194 11.5175 9.15894 11.9995 9.15894C12.4815 9.15894 12.8745 9.55194 12.8745 10.0339V12.8619C12.8745 13.3449 12.4815 13.7369 11.9995 13.7369C11.5175 13.7369 11.1245 13.3449 11.1245 12.8619V10.0339ZM11.1245 16.283C11.1245 15.798 11.5175 15.403 11.9995 15.403C12.4815 15.403 12.8745 15.793 12.8745 16.272C12.8745 16.765 12.4815 17.158 11.9995 17.158C11.5175 17.158 11.1245 16.765 11.1245 16.283Z" fill="#8A92A6"/>
</svg>
