<svg width="24" height="25" viewBox="0 0 24 25" fill="none" xmlns="http://www.w3.org/2000/svg">
<g clip-path="url(#clip0_50_272)">
<path fill-rule="evenodd" clip-rule="evenodd" d="M13.9931 3.44674C12.8564 2.43637 11.1436 2.43637 10.0069 3.44674L2.33565 10.2657C1.92286 10.6326 1.88568 11.2647 2.2526 11.6775C2.61952 12.0902 3.25159 12.1274 3.66437 11.7605L4.00001 11.4622V17.0789C3.99996 17.9654 3.99992 18.7292 4.08215 19.3409C4.17028 19.9964 4.36903 20.6248 4.87869 21.1344C5.38835 21.6441 6.0167 21.8428 6.67222 21.931C7.28388 22.0132 8.04769 22.0131 8.93418 22.0131H15.0658C15.9523 22.0131 16.7161 22.0132 17.3278 21.931C17.9833 21.8428 18.6117 21.6441 19.1213 21.1344C19.631 20.6248 19.8297 19.9964 19.9179 19.3409C20.0001 18.7292 20.0001 17.9654 20 17.079V11.4622L20.3356 11.7605C20.7484 12.1274 21.3805 12.0902 21.7474 11.6775C22.1143 11.2647 22.0772 10.6326 21.6644 10.2657L13.9931 3.44674ZM12 16.0131C11.4477 16.0131 11 16.4608 11 17.0131V19.0131C11 19.5654 10.5523 20.0131 10 20.0131C9.44772 20.0131 9 19.5654 9 19.0131V17.0131C9 15.3562 10.3431 14.0131 12 14.0131C13.6569 14.0131 15 15.3562 15 17.0131V19.0131C15 19.5654 14.5523 20.0131 14 20.0131C13.4477 20.0131 13 19.5654 13 19.0131V17.0131C13 16.4608 12.5523 16.0131 12 16.0131Z" fill="#8A92A6"/>
</g>
<defs>
<clipPath id="clip0_50_272">
<rect width="24" height="24" fill="white" transform="translate(0 0.0131836)"/>
</clipPath>
</defs>
</svg>
