<svg width="24" height="25" viewBox="0 0 24 25" fill="none" xmlns="http://www.w3.org/2000/svg">
<path d="M12.012 14.8431C10.4075 14.8431 9.10962 13.5931 9.10962 12.0231C9.10962 10.4531 10.4075 9.19312 12.012 9.19312C13.6165 9.19312 14.8837 10.4531 14.8837 12.0231C14.8837 13.5931 13.6165 14.8431 12.012 14.8431Z" fill="#8A92A6"/>
<path opacity="0.4" d="M21.23 14.3832C21.0358 14.0832 20.7599 13.7832 20.4022 13.5932C20.1161 13.4532 19.9321 13.2232 19.7686 12.9532C19.2474 12.0932 19.554 10.9632 20.4227 10.4532C21.4446 9.88318 21.7716 8.61318 21.1789 7.62318L20.4942 6.44318C19.9117 5.45318 18.6342 5.10318 17.6225 5.68318C16.7232 6.16318 15.5684 5.84318 15.0472 4.99318C14.8837 4.71318 14.7917 4.41318 14.8121 4.11318C14.8428 3.72318 14.7201 3.35318 14.5362 3.05318C14.1581 2.43318 13.4734 2.01318 12.7171 2.01318H11.2761C10.5301 2.03318 9.8454 2.43318 9.46728 3.05318C9.27311 3.35318 9.16069 3.72318 9.18113 4.11318C9.20157 4.41318 9.10959 4.71318 8.94608 4.99318C8.42488 5.84318 7.27007 6.16318 6.38097 5.68318C5.35901 5.10318 4.09178 5.45318 3.49905 6.44318L2.81434 7.62318C2.23182 8.61318 2.55885 9.88318 3.57059 10.4532C4.43925 10.9632 4.74584 12.0932 4.23486 12.9532C4.06112 13.2232 3.87717 13.4532 3.59102 13.5932C3.24356 13.7832 2.93697 14.0832 2.77346 14.3832C2.39533 15.0032 2.41577 15.7832 2.7939 16.4332L3.49905 17.6332C3.87717 18.2732 4.58232 18.6732 5.31813 18.6732C5.6656 18.6732 6.07438 18.5732 6.40141 18.3732C6.6569 18.2032 6.96348 18.1432 7.30073 18.1432C8.31247 18.1432 9.16069 18.9732 9.18113 19.9632C9.18113 21.1132 10.1213 22.0132 11.3068 22.0132H12.6967C13.8719 22.0132 14.8121 21.1132 14.8121 19.9632C14.8428 18.9732 15.691 18.1432 16.7027 18.1432C17.0298 18.1432 17.3364 18.2032 17.6021 18.3732C17.9291 18.5732 18.3277 18.6732 18.6853 18.6732C19.4109 18.6732 20.1161 18.2732 20.4942 17.6332L21.2096 16.4332C21.5775 15.7632 21.6081 15.0032 21.23 14.3832Z" fill="#8A92A6"/>
</svg>
