<svg width="231" height="176" viewBox="0 0 231 176" fill="none" xmlns="http://www.w3.org/2000/svg">
<g clip-path="url(#clip0_2530_5722)">
<path d="M178.959 143.161H40.3594V39.464H178.959V143.161Z" fill="white"/>
<path d="M178.959 143.161H40.3594V39.464H178.959V143.161ZM41.7882 40.891V141.734H177.531V40.891H41.7882Z" fill="#E6E6E6"/>
<path d="M109.613 117.864C124.188 117.864 136.004 106.064 136.004 91.5072C136.004 76.9508 124.188 65.1505 109.613 65.1505C95.0382 65.1505 83.2227 76.9508 83.2227 91.5072C83.2227 106.064 95.0382 117.864 109.613 117.864Z" fill="#8CC63F"/>
<path d="M120.573 89.2939H111.6V80.3326C111.6 79.7734 111.377 79.237 110.982 78.8416C110.586 78.4461 110.049 78.2239 109.489 78.2239C108.929 78.2239 108.392 78.4461 107.996 78.8416C107.6 79.237 107.377 79.7734 107.377 80.3326V89.2939H98.4044C97.8444 89.2939 97.3073 89.516 96.9114 89.9115C96.5154 90.3069 96.293 90.8433 96.293 91.4025C96.293 91.9618 96.5154 92.4981 96.9114 92.8936C97.3073 93.289 97.8444 93.5112 98.4044 93.5112H107.377V102.472C107.377 103.032 107.6 103.568 107.996 103.964C108.392 104.359 108.929 104.581 109.489 104.581C110.049 104.581 110.586 104.359 110.982 103.964C111.377 103.568 111.6 103.032 111.6 102.472V93.5112H120.573C121.133 93.5112 121.67 93.289 122.066 92.8936C122.462 92.4981 122.684 91.9618 122.684 91.4025C122.684 90.8433 122.462 90.3069 122.066 89.9115C121.67 89.516 121.133 89.2939 120.573 89.2939Z" fill="white"/>
<path d="M51.7911 39.0312H0V0H51.7911V39.0312Z" fill="white"/>
<path d="M51.7911 39.0312H0V0H51.7911V39.0312ZM0.952577 38.0798H50.8386V0.951352H0.952577V38.0798Z" fill="#E6E6E6"/>
<path d="M44.9609 10.6304H6.83203V13.1691H44.9609V10.6304Z" fill="#E4E4E4"/>
<path d="M44.9609 18.246H6.83203V20.7847H44.9609V18.246Z" fill="#E4E4E4"/>
<path d="M44.9609 25.8621H6.83203V28.4007H44.9609V25.8621Z" fill="#E4E4E4"/>
<path d="M81.1168 61.8636H23.3398V18.3214H81.1168V61.8636Z" fill="white"/>
<path d="M81.1168 61.8636H23.3398V18.3214H81.1168V61.8636ZM24.4025 60.8023H80.0541V19.3827H24.4025V60.8023Z" fill="#E6E6E6"/>
<path d="M73.4926 30.1805H30.957V33.0126H73.4926V30.1805Z" fill="#8CC63F"/>
<path d="M73.4926 38.6761H30.957V41.5082H73.4926V38.6761Z" fill="#8CC63F"/>
<path d="M73.4926 47.1725H30.957V50.0046H73.4926V47.1725Z" fill="#8CC63F"/>
<path d="M231.056 175.852H142.887V109.405H231.056V175.852Z" fill="white"/>
<path d="M231.056 175.852H142.887V109.405H231.056V175.852ZM144.508 174.232H229.434V111.025H144.508V174.232Z" fill="#E6E6E6"/>
<path d="M219.426 127.503H154.516V131.824H219.426V127.503Z" fill="#8CC63F"/>
<path d="M219.426 140.467H154.516V144.789H219.426V140.467Z" fill="#8CC63F"/>
<path d="M219.426 153.433H154.516V157.755H219.426V153.433Z" fill="#8CC63F"/>
</g>
<defs>
<clipPath id="clip0_2530_5722">
<rect width="231" height="176" fill="white"/>
</clipPath>
</defs>
</svg>
