<svg width="20" height="20" viewBox="0 0 20 20" fill="none" xmlns="http://www.w3.org/2000/svg">
<path d="M14.167 2.91699H5.83366C3.33366 2.91699 1.66699 4.16699 1.66699 7.08366V12.917C1.66699 15.8337 3.33366 17.0837 5.83366 17.0837H14.167C16.667 17.0837 18.3337 15.8337 18.3337 12.917V7.08366C18.3337 4.16699 16.667 2.91699 14.167 2.91699ZM5.62533 13.3337C5.62533 13.6753 5.34199 13.9587 5.00033 13.9587C4.65866 13.9587 4.37533 13.6753 4.37533 13.3337V6.66699C4.37533 6.32533 4.65866 6.04199 5.00033 6.04199C5.34199 6.04199 5.62533 6.32533 5.62533 6.66699V13.3337ZM8.12533 13.3337C8.12533 13.6753 7.84199 13.9587 7.50033 13.9587C7.15866 13.9587 6.87533 13.6753 6.87533 13.3337V12.5003C6.87533 12.1587 7.15866 11.8753 7.50033 11.8753C7.84199 11.8753 8.12533 12.1587 8.12533 12.5003V13.3337ZM8.12533 10.0003C8.12533 10.342 7.84199 10.6253 7.50033 10.6253C7.15866 10.6253 6.87533 10.342 6.87533 10.0003V6.66699C6.87533 6.32533 7.15866 6.04199 7.50033 6.04199C7.84199 6.04199 8.12533 6.32533 8.12533 6.66699V10.0003ZM10.6253 13.3337C10.6253 13.6753 10.342 13.9587 10.0003 13.9587C9.65866 13.9587 9.37533 13.6753 9.37533 13.3337V6.66699C9.37533 6.32533 9.65866 6.04199 10.0003 6.04199C10.342 6.04199 10.6253 6.32533 10.6253 6.66699V13.3337ZM13.1253 13.3337C13.1253 13.6753 12.842 13.9587 12.5003 13.9587C12.1587 13.9587 11.8753 13.6753 11.8753 13.3337V10.0003C11.8753 9.65866 12.1587 9.37533 12.5003 9.37533C12.842 9.37533 13.1253 9.65866 13.1253 10.0003V13.3337ZM13.1253 7.50033C13.1253 7.84199 12.842 8.12533 12.5003 8.12533C12.1587 8.12533 11.8753 7.84199 11.8753 7.50033V6.66699C11.8753 6.32533 12.1587 6.04199 12.5003 6.04199C12.842 6.04199 13.1253 6.32533 13.1253 6.66699V7.50033ZM15.6253 13.3337C15.6253 13.6753 15.342 13.9587 15.0003 13.9587C14.6587 13.9587 14.3753 13.6753 14.3753 13.3337V6.66699C14.3753 6.32533 14.6587 6.04199 15.0003 6.04199C15.342 6.04199 15.6253 6.32533 15.6253 6.66699V13.3337Z" fill="#6B7280"/>
</svg>
