<svg width="30" height="30" viewBox="0 0 30 30" fill="none" xmlns="http://www.w3.org/2000/svg">
<path d="M13.4375 9.0625C13.4375 9.92545 12.738 10.625 11.875 10.625C11.012 10.625 10.3125 9.92545 10.3125 9.0625C10.3125 8.19955 11.012 7.5 11.875 7.5C12.738 7.5 13.4375 8.19955 13.4375 9.0625Z" fill="white"/>
<path d="M19.6875 9.0625C19.6875 9.92545 18.988 10.625 18.125 10.625C17.262 10.625 16.5625 9.92545 16.5625 9.0625C16.5625 8.19955 17.262 7.5 18.125 7.5C18.988 7.5 19.6875 8.19955 19.6875 9.0625Z" fill="white"/>
<path d="M16.875 14.375C16.875 15.4105 16.0355 16.25 15 16.25C13.9645 16.25 13.125 15.4105 13.125 14.375C13.125 13.3395 13.9645 12.5 15 12.5C16.0355 12.5 16.875 13.3395 16.875 14.375Z" fill="white"/>
<path d="M10.625 14.375C10.625 15.4105 9.78554 16.25 8.75 16.25C7.71446 16.25 6.875 15.4105 6.875 14.375C6.875 13.3395 7.71446 12.5 8.75 12.5C9.78554 12.5 10.625 13.3395 10.625 14.375Z" fill="white"/>
<path d="M23.125 14.375C23.125 15.4105 22.2855 16.25 21.25 16.25C20.2145 16.25 19.375 15.4105 19.375 14.375C19.375 13.3395 20.2145 12.5 21.25 12.5C22.2855 12.5 23.125 13.3395 23.125 14.375Z" fill="white"/>
<path d="M13.75 20C13.75 21.0355 12.9105 21.875 11.875 21.875C10.8395 21.875 10 21.0355 10 20C10 18.9645 10.8395 18.125 11.875 18.125C12.9105 18.125 13.75 18.9645 13.75 20Z" fill="white"/>
<path d="M20 20C20 21.0355 19.1605 21.875 18.125 21.875C17.0895 21.875 16.25 21.0355 16.25 20C16.25 18.9645 17.0895 18.125 18.125 18.125C19.1605 18.125 20 18.9645 20 20Z" fill="white"/>
<path fill-rule="evenodd" clip-rule="evenodd" d="M15 24.375C20.379 24.375 25 19.688 25 13.575C25 11.2416 24.317 9.09722 23.1687 7.34564C22.7571 6.71789 22.2864 6.14136 21.7665 5.625H8.23344C7.71362 6.14136 7.24283 6.71789 6.83129 7.34564C5.68301 9.09722 5 11.2416 5 13.575C5 19.688 9.62099 24.375 15 24.375ZM7.26679 3.125H22.7332C23.701 3.9369 24.5532 4.89773 25.2595 5.975C26.6717 8.12929 27.5 10.7492 27.5 13.575C27.5 20.9204 21.9035 26.875 15 26.875C8.09644 26.875 2.5 20.9204 2.5 13.575C2.5 10.7492 3.32824 8.12929 4.74051 5.975C5.44674 4.89773 6.29901 3.9369 7.26679 3.125Z" fill="white"/>
</svg>
