<svg width="14" height="15" viewBox="0 0 14 15" fill="none" xmlns="http://www.w3.org/2000/svg">
<path d="M6.41699 1.66675H5.25033C2.33366 1.66675 1.16699 2.83341 1.16699 5.75008V9.25008C1.16699 12.1667 2.33366 13.3334 5.25033 13.3334H8.75033C11.667 13.3334 12.8337 12.1667 12.8337 9.25008V8.08341" stroke="#6B7280" stroke-width="1.5" stroke-linecap="round" stroke-linejoin="round"/>
<path d="M9.35708 2.26157L4.76042 6.85824C4.58542 7.03324 4.41042 7.3774 4.37542 7.62824L4.12458 9.38407C4.03125 10.0199 4.48042 10.4632 5.11625 10.3757L6.87208 10.1249C7.11708 10.0899 7.46125 9.9149 7.64208 9.7399L12.2388 5.14324C13.0321 4.3499 13.4054 3.42824 12.2388 2.26157C11.0721 1.0949 10.1504 1.46824 9.35708 2.26157Z" stroke="#6B7280" stroke-width="1.5" stroke-miterlimit="10" stroke-linecap="round" stroke-linejoin="round"/>
<path d="M8.69727 2.9209C9.0881 4.31507 10.1789 5.4059 11.5789 5.80257" stroke="#6B7280" stroke-width="1.5" stroke-miterlimit="10" stroke-linecap="round" stroke-linejoin="round"/>
</svg>
