<svg width="24" height="25" viewBox="0 0 24 25" fill="none" xmlns="http://www.w3.org/2000/svg">
<path d="M4.34043 1.48438C2.84043 1.48438 1.33855 2.60938 1.33855 4.85938L4.34043 10.8594L7.34043 4.85938C7.34043 2.60938 5.84043 1.48438 4.34043 1.48438ZM17.5732 3.3125C17.2498 3.32609 16.9357 3.3875 16.6732 3.44375L16.8514 4.26875C17.1139 4.21016 17.3857 4.17313 17.6154 4.15625L17.5732 3.3125ZM4.34043 3.35938C5.17012 3.35938 5.84043 4.03109 5.84043 4.85938C5.84043 5.68906 5.17012 6.35938 4.34043 6.35938C3.51215 6.35938 2.84043 5.68906 2.84043 4.85938C2.84043 4.03109 3.51215 3.35938 4.34043 3.35938ZM18.5061 3.36875L18.3654 4.19844C18.5951 4.24672 18.8248 4.30719 19.0264 4.42813L19.4342 3.6875C19.1482 3.53516 18.8295 3.39828 18.5061 3.36875ZM15.8107 3.68281C15.5248 3.79438 15.2389 3.89422 14.9951 3.99219L15.3279 4.76562C15.5857 4.65594 15.8576 4.56031 16.0873 4.47969L15.8107 3.68281ZM20.2029 4.31094L19.5607 4.85938C19.7295 5.0525 19.8607 5.29063 19.9639 5.48281L20.7186 5.10312C20.5592 4.79609 20.4186 4.56359 20.2029 4.31094ZM14.2123 4.35312C13.9264 4.49891 13.692 4.62875 13.4389 4.75625L13.8514 5.49687C14.0951 5.35625 14.3623 5.22031 14.5779 5.1125L14.2123 4.35312ZM12.6982 5.19219C12.4498 5.3375 12.2061 5.48281 11.967 5.64219L12.4264 6.34531C12.6561 6.19531 12.8951 6.05469 13.1295 5.91406L12.6982 5.19219ZM21.0092 6.03125C20.7326 6.07812 20.4514 6.11094 20.1748 6.14375C20.1936 6.37813 20.1795 6.63125 20.1326 6.82812L20.9529 7.02031C20.9998 6.68281 21.042 6.33594 21.0092 6.03125ZM11.2545 6.11094C11.0201 6.27031 10.7904 6.43437 10.5561 6.59375L11.0436 7.28281C11.2686 7.11875 11.4982 6.96406 11.7279 6.80469L11.2545 6.11094ZM9.86699 7.1C9.63262 7.26875 9.38887 7.45625 9.18731 7.61094L9.69824 8.28125C9.95606 8.09375 10.1342 7.95312 10.3686 7.77969L9.86699 7.1ZM19.8514 7.475C19.7107 7.69063 19.5467 7.90625 19.3826 8.07031L19.9967 8.65625C20.1982 8.41719 20.4139 8.17344 20.5639 7.92969L19.8514 7.475ZM8.51699 8.13594C8.28731 8.31406 8.05762 8.49687 7.85606 8.66562L8.39043 9.31719C8.61074 9.13438 8.83574 8.94688 9.04199 8.79688L8.51699 8.13594ZM18.8014 8.60938C18.5857 8.78281 18.3607 8.95156 18.1545 9.09219L18.6373 9.78594C18.8857 9.61719 19.1295 9.43437 19.3404 9.26562L18.8014 8.60938ZM7.20449 9.21406C6.98418 9.39219 6.77324 9.57969 6.55762 9.7625L7.10606 10.4047C7.31699 10.2219 7.52793 10.0391 7.74356 9.86094L7.20449 9.21406ZM17.4654 9.54219C17.2264 9.68281 16.9779 9.82812 16.7529 9.95L17.1561 10.6953C17.4092 10.5406 17.6951 10.4047 17.9061 10.2641L17.4654 9.54219ZM5.91543 10.3203C5.70449 10.5078 5.49824 10.6953 5.2873 10.8875L5.85449 11.5156C6.06074 11.3281 6.27168 11.1406 6.47793 10.9531L5.91543 10.3203ZM16.017 10.3391C15.7686 10.4609 15.5201 10.5875 15.2717 10.7094L15.6326 11.4688C15.9232 11.3281 16.1389 11.2109 16.4014 11.0891L16.017 10.3391ZM14.517 11.0609C14.2592 11.1781 14.0107 11.2906 13.7482 11.3984L14.0904 12.1719C14.3482 12.0594 14.6061 11.9422 14.8639 11.825L14.517 11.0609ZM4.66855 11.4688C4.42949 11.6797 4.26309 11.8438 4.04512 12.0547L4.64043 12.6641C4.86074 12.4531 5.03887 12.2703 5.24512 12.0922L4.66855 11.4688ZM12.9795 11.7406C12.7217 11.8484 12.4639 11.9609 12.2061 12.0688L12.5342 12.8516C12.7967 12.7437 13.0545 12.6312 13.3123 12.5187L12.9795 11.7406ZM11.4279 12.3969C11.1701 12.5094 10.9123 12.6219 10.6498 12.725L10.9779 13.5078C11.2357 13.4 11.4982 13.2875 11.7561 13.1797L11.4279 12.3969ZM20.0904 12.7344C18.5904 12.7344 17.0904 13.8594 17.0904 16.1094L20.0904 22.1094L23.0904 16.1094C23.0904 13.8594 21.5904 12.7344 20.0904 12.7344ZM9.87168 13.0531C9.60449 13.175 9.32324 13.2875 9.09356 13.3859L9.42637 14.1641C9.70293 14.0469 9.96543 13.9344 10.1998 13.8312L9.87168 13.0531ZM8.31543 13.7188C8.06231 13.8359 7.76699 13.9672 7.54199 14.0703L7.88887 14.8391C8.16543 14.7172 8.40918 14.5953 8.65293 14.4922L8.31543 13.7188ZM6.76855 14.4219C6.50605 14.5484 6.23418 14.6797 5.9998 14.7969L6.37949 15.5516C6.63262 15.4203 6.89512 15.2984 7.12481 15.1859L6.76855 14.4219ZM20.0904 14.6094C20.9201 14.6094 21.5904 15.2797 21.5904 16.1094C21.5904 16.9391 20.9201 17.6094 20.0904 17.6094C19.2607 17.6094 18.5904 16.9391 18.5904 16.1094C18.5904 15.2797 19.2607 14.6094 20.0904 14.6094ZM5.24043 15.1859C4.99199 15.3219 4.74356 15.4625 4.49043 15.6078L4.9123 16.3391C5.15137 16.1984 5.39512 16.0672 5.63887 15.9359L5.24043 15.1859ZM3.75449 16.0625C3.49152 16.2125 3.23746 16.4141 3.01855 16.5594L3.52949 17.2344C3.76246 17.0656 4.01324 16.8922 4.21387 16.7703L3.75449 16.0625ZM2.35293 17.1219C2.12793 17.3281 1.90621 17.5672 1.73418 17.7687L2.37637 18.3172C2.55684 18.0969 2.71387 17.9328 2.9248 17.7453L2.35293 17.1219ZM12.5623 17.1828L12.6373 18.0219C12.8811 17.9797 13.1248 18.0078 13.3686 18.0453L13.5139 17.2156C13.2045 17.1688 12.8764 17.1359 12.5623 17.1828ZM10.8186 17.6516L11.1373 18.4344C11.3811 18.3266 11.6342 18.2422 11.892 18.1625C11.8029 17.8953 11.7373 17.6234 11.667 17.3516C11.3717 17.4359 11.0764 17.5484 10.8186 17.6516ZM14.4514 17.6094L13.9732 18.3031C14.1701 18.4484 14.3623 18.6031 14.517 18.7953L15.1545 18.2422C14.9154 17.9984 14.7326 17.7687 14.4514 17.6094ZM10.0217 18.0312C9.76387 18.1625 9.51543 18.3125 9.26699 18.4578L9.69356 19.1844C9.93731 19.0531 10.1764 18.8984 10.4154 18.7719L10.0217 18.0312ZM1.21902 18.5469C1.07746 18.8516 0.962617 19.1797 0.90918 19.4703L1.73887 19.6156C1.78949 19.3484 1.86215 19.1562 1.96855 18.9266C1.71121 18.8141 1.46559 18.6781 1.21902 18.5469ZM8.53574 18.9125C8.29668 19.0672 8.06231 19.2219 7.82793 19.3812L8.29668 20.0844C8.53106 19.9297 8.76074 19.7703 8.99512 19.6156L8.53574 18.9125ZM15.6936 18.9688L14.9857 19.4281C15.1357 19.6531 15.2811 19.8875 15.417 20.1266L16.1482 19.7047C15.9842 19.4422 15.867 19.2078 15.6936 18.9688ZM7.12949 19.8594C6.89512 20.0141 6.66074 20.1641 6.43106 20.3281L6.89981 21.0312C7.1248 20.8672 7.36387 20.7125 7.60293 20.5531L7.12949 19.8594ZM1.74824 20.3047C1.47684 20.3609 1.20309 20.4078 0.930273 20.4594C0.979492 20.7875 1.11121 21.1063 1.23027 21.3594L1.99199 20.9938C1.89027 20.7594 1.79371 20.5156 1.74824 20.3047ZM16.5654 20.4359L15.8342 20.8578C15.9795 21.1109 16.1482 21.3828 16.2842 21.5984L16.992 21.1437C16.8326 20.8953 16.6967 20.6609 16.5654 20.4359ZM5.73731 20.7875C5.50293 20.9328 5.27324 21.0734 5.02949 21.2094L5.44668 21.9453C5.69512 21.8 5.94355 21.6547 6.18262 21.5L5.73731 20.7875ZM2.39512 21.5516L1.81855 22.1703C2.07918 22.4187 2.40074 22.5828 2.75137 22.6578L2.93887 21.8375C2.73074 21.7953 2.53621 21.6922 2.39512 21.5516ZM4.31699 21.5656C4.08215 21.6734 3.8384 21.7578 3.58574 21.8094L3.77793 22.6344C4.07887 22.5734 4.36199 22.4609 4.64512 22.3438L4.31699 21.5656ZM17.4561 21.7906L16.8045 22.3203C17.0061 22.5688 17.2545 22.8078 17.4701 22.9766L17.9904 22.3109C17.7842 22.1516 17.6061 21.9594 17.4561 21.7906ZM18.5857 22.6109L18.3748 23.4313C18.7451 23.5063 19.0217 23.5297 19.3686 23.4922L19.2654 22.6531C19.0357 22.6906 18.8107 22.6672 18.5857 22.6109Z" fill="#111111"/>
</svg>
