<svg width="25" height="25" viewBox="0 0 25 25" fill="none" xmlns="http://www.w3.org/2000/svg">
<g id="material-symbols:location-on">
<path id="Vector" d="M12.4214 12.2925C12.9714 12.2925 13.4424 12.0965 13.8344 11.7045C14.2257 11.3131 14.4214 10.8425 14.4214 10.2925C14.4214 9.74248 14.2257 9.27148 13.8344 8.87948C13.4424 8.48815 12.9714 8.29248 12.4214 8.29248C11.8714 8.29248 11.4007 8.48815 11.0094 8.87948C10.6174 9.27148 10.4214 9.74248 10.4214 10.2925C10.4214 10.8425 10.6174 11.3131 11.0094 11.7045C11.4007 12.0965 11.8714 12.2925 12.4214 12.2925ZM12.4214 22.2925C9.73805 20.0091 7.73405 17.8881 6.40939 15.9295C5.08405 13.9715 4.42139 12.1591 4.42139 10.4925C4.42139 7.99248 5.22572 6.00081 6.83439 4.51748C8.44239 3.03415 10.3047 2.29248 12.4214 2.29248C14.5381 2.29248 16.4004 3.03415 18.0084 4.51748C19.6171 6.00081 20.4214 7.99248 20.4214 10.4925C20.4214 12.1591 19.7591 13.9715 18.4344 15.9295C17.1091 17.8881 15.1047 20.0091 12.4214 22.2925Z" fill="white"/>
</g>
</svg>
