<svg width="33" height="31" viewBox="0 0 33 31" fill="none" xmlns="http://www.w3.org/2000/svg">
<g id="material-symbols:call">
<path id="Vector" d="M26.935 23.5948C24.5097 24.0423 22.0498 23.9595 19.5555 23.3462C17.0606 22.7338 14.7675 21.7385 12.6764 20.3603C10.5846 18.983 8.79437 17.2883 7.30562 15.2764C5.81626 13.2653 4.85675 11.0955 4.42711 8.76722C4.36716 8.44233 4.43001 8.15078 4.61566 7.89256C4.8013 7.63434 5.06334 7.47401 5.40176 7.41156L9.97042 6.56851C10.2336 6.51994 10.4836 6.55779 10.7204 6.68207C10.9572 6.80635 11.1177 6.99137 11.202 7.23711L12.6346 10.8921C12.7188 11.1379 12.7568 11.3686 12.7484 11.5844C12.7394 11.8011 12.6652 12.0063 12.526 12.1999L10.3082 15.3527C11.3377 16.5066 12.5496 17.5427 13.9439 18.4613C15.3381 19.3798 16.8263 20.1223 18.4084 20.6889L20.5898 17.6548C20.729 17.4612 20.9276 17.2984 21.1855 17.1664C21.4429 17.0353 21.7065 16.9635 21.9763 16.951L26.008 16.991C26.2812 16.9965 26.5199 17.0783 26.724 17.2362C26.9283 17.3949 27.0537 17.6005 27.1003 17.8532L27.9097 22.2391C27.9696 22.564 27.9068 22.8556 27.7211 23.1138C27.5355 23.372 27.2734 23.5324 26.935 23.5948Z" fill="white"/>
</g>
</svg>
