<svg width="25" height="25" viewBox="0 0 25 25" fill="none" xmlns="http://www.w3.org/2000/svg">
<g id="material-symbols:calendar-month-outline-rounded">
<path id="Vector" d="M12.4214 14.2925C12.1381 14.2925 11.9007 14.1965 11.7094 14.0045C11.5174 13.8131 11.4214 13.5758 11.4214 13.2925C11.4214 13.0091 11.5174 12.7715 11.7094 12.5795C11.9007 12.3881 12.1381 12.2925 12.4214 12.2925C12.7047 12.2925 12.9424 12.3881 13.1344 12.5795C13.3257 12.7715 13.4214 13.0091 13.4214 13.2925C13.4214 13.5758 13.3257 13.8131 13.1344 14.0045C12.9424 14.1965 12.7047 14.2925 12.4214 14.2925ZM8.42139 14.2925C8.13805 14.2925 7.90039 14.1965 7.70839 14.0045C7.51705 13.8131 7.42139 13.5758 7.42139 13.2925C7.42139 13.0091 7.51705 12.7715 7.70839 12.5795C7.90039 12.3881 8.13805 12.2925 8.42139 12.2925C8.70472 12.2925 8.94239 12.3881 9.13439 12.5795C9.32572 12.7715 9.42139 13.0091 9.42139 13.2925C9.42139 13.5758 9.32572 13.8131 9.13439 14.0045C8.94239 14.1965 8.70472 14.2925 8.42139 14.2925ZM16.4214 14.2925C16.1381 14.2925 15.9007 14.1965 15.7094 14.0045C15.5174 13.8131 15.4214 13.5758 15.4214 13.2925C15.4214 13.0091 15.5174 12.7715 15.7094 12.5795C15.9007 12.3881 16.1381 12.2925 16.4214 12.2925C16.7047 12.2925 16.9421 12.3881 17.1334 12.5795C17.3254 12.7715 17.4214 13.0091 17.4214 13.2925C17.4214 13.5758 17.3254 13.8131 17.1334 14.0045C16.9421 14.1965 16.7047 14.2925 16.4214 14.2925ZM12.4214 18.2925C12.1381 18.2925 11.9007 18.1965 11.7094 18.0045C11.5174 17.8131 11.4214 17.5758 11.4214 17.2925C11.4214 17.0091 11.5174 16.7718 11.7094 16.5805C11.9007 16.3885 12.1381 16.2925 12.4214 16.2925C12.7047 16.2925 12.9424 16.3885 13.1344 16.5805C13.3257 16.7718 13.4214 17.0091 13.4214 17.2925C13.4214 17.5758 13.3257 17.8131 13.1344 18.0045C12.9424 18.1965 12.7047 18.2925 12.4214 18.2925ZM8.42139 18.2925C8.13805 18.2925 7.90039 18.1965 7.70839 18.0045C7.51705 17.8131 7.42139 17.5758 7.42139 17.2925C7.42139 17.0091 7.51705 16.7718 7.70839 16.5805C7.90039 16.3885 8.13805 16.2925 8.42139 16.2925C8.70472 16.2925 8.94239 16.3885 9.13439 16.5805C9.32572 16.7718 9.42139 17.0091 9.42139 17.2925C9.42139 17.5758 9.32572 17.8131 9.13439 18.0045C8.94239 18.1965 8.70472 18.2925 8.42139 18.2925ZM16.4214 18.2925C16.1381 18.2925 15.9007 18.1965 15.7094 18.0045C15.5174 17.8131 15.4214 17.5758 15.4214 17.2925C15.4214 17.0091 15.5174 16.7718 15.7094 16.5805C15.9007 16.3885 16.1381 16.2925 16.4214 16.2925C16.7047 16.2925 16.9421 16.3885 17.1334 16.5805C17.3254 16.7718 17.4214 17.0091 17.4214 17.2925C17.4214 17.5758 17.3254 17.8131 17.1334 18.0045C16.9421 18.1965 16.7047 18.2925 16.4214 18.2925ZM5.42139 22.2925C4.87139 22.2925 4.40039 22.0968 4.00839 21.7055C3.61705 21.3135 3.42139 20.8425 3.42139 20.2925V6.29248C3.42139 5.74248 3.61705 5.27181 4.00839 4.88048C4.40039 4.48848 4.87139 4.29248 5.42139 4.29248H6.42139V3.29248C6.42139 3.00915 6.51705 2.77148 6.70839 2.57948C6.90039 2.38815 7.13805 2.29248 7.42139 2.29248C7.70472 2.29248 7.94239 2.38815 8.13439 2.57948C8.32572 2.77148 8.42139 3.00915 8.42139 3.29248V4.29248H16.4214V3.29248C16.4214 3.00915 16.5174 2.77148 16.7094 2.57948C16.9007 2.38815 17.1381 2.29248 17.4214 2.29248C17.7047 2.29248 17.9421 2.38815 18.1334 2.57948C18.3254 2.77148 18.4214 3.00915 18.4214 3.29248V4.29248H19.4214C19.9714 4.29248 20.4424 4.48848 20.8344 4.88048C21.2257 5.27181 21.4214 5.74248 21.4214 6.29248V20.2925C21.4214 20.8425 21.2257 21.3135 20.8344 21.7055C20.4424 22.0968 19.9714 22.2925 19.4214 22.2925H5.42139ZM5.42139 20.2925H19.4214V10.2925H5.42139V20.2925ZM5.42139 8.29248H19.4214V6.29248H5.42139V8.29248Z" fill="white"/>
</g>
</svg>
