<svg width="24" height="25" viewBox="0 0 24 25" fill="none" xmlns="http://www.w3.org/2000/svg">
<g id="material-symbols:nest-clock-farsight-analog-outline-rounded">
<path id="Vector" d="M13 12.675L15.25 14.925C15.4333 15.1083 15.525 15.3377 15.525 15.613C15.525 15.8877 15.4333 16.125 15.25 16.325C15.05 16.525 14.8127 16.625 14.538 16.625C14.2627 16.625 14.025 16.525 13.825 16.325L11.7 14.2C11.4667 13.9667 11.2917 13.7083 11.175 13.425C11.0583 13.1417 11 12.8333 11 12.5V9.5C11 9.21667 11.096 8.979 11.288 8.787C11.4793 8.59567 11.7167 8.5 12 8.5C12.2833 8.5 12.521 8.59567 12.713 8.787C12.9043 8.979 13 9.21667 13 9.5V12.675ZM12 4.5C12.2833 4.5 12.521 4.59567 12.713 4.787C12.9043 4.979 13 5.21667 13 5.5C13 5.78333 12.9043 6.021 12.713 6.213C12.521 6.40433 12.2833 6.5 12 6.5C11.7167 6.5 11.4793 6.40433 11.288 6.213C11.096 6.021 11 5.78333 11 5.5C11 5.21667 11.096 4.979 11.288 4.787C11.4793 4.59567 11.7167 4.5 12 4.5ZM20 12.5C20 12.7833 19.904 13.0207 19.712 13.212C19.5207 13.404 19.2833 13.5 19 13.5C18.7167 13.5 18.4793 13.404 18.288 13.212C18.096 13.0207 18 12.7833 18 12.5C18 12.2167 18.096 11.979 18.288 11.787C18.4793 11.5957 18.7167 11.5 19 11.5C19.2833 11.5 19.5207 11.5957 19.712 11.787C19.904 11.979 20 12.2167 20 12.5ZM12 18.5C12.2833 18.5 12.521 18.596 12.713 18.788C12.9043 18.9793 13 19.2167 13 19.5C13 19.7833 12.9043 20.0207 12.713 20.212C12.521 20.404 12.2833 20.5 12 20.5C11.7167 20.5 11.4793 20.404 11.288 20.212C11.096 20.0207 11 19.7833 11 19.5C11 19.2167 11.096 18.9793 11.288 18.788C11.4793 18.596 11.7167 18.5 12 18.5ZM6 12.5C6 12.7833 5.90433 13.0207 5.713 13.212C5.521 13.404 5.28333 13.5 5 13.5C4.71667 13.5 4.479 13.404 4.287 13.212C4.09567 13.0207 4 12.7833 4 12.5C4 12.2167 4.09567 11.979 4.287 11.787C4.479 11.5957 4.71667 11.5 5 11.5C5.28333 11.5 5.521 11.5957 5.713 11.787C5.90433 11.979 6 12.2167 6 12.5ZM12 22.5C10.6167 22.5 9.31667 22.2373 8.1 21.712C6.88333 21.1873 5.825 20.475 4.925 19.575C4.025 18.675 3.31267 17.6167 2.788 16.4C2.26267 15.1833 2 13.8833 2 12.5C2 11.1167 2.26267 9.81667 2.788 8.6C3.31267 7.38333 4.025 6.325 4.925 5.425C5.825 4.525 6.88333 3.81233 8.1 3.287C9.31667 2.76233 10.6167 2.5 12 2.5C13.3833 2.5 14.6833 2.76233 15.9 3.287C17.1167 3.81233 18.175 4.525 19.075 5.425C19.975 6.325 20.6873 7.38333 21.212 8.6C21.7373 9.81667 22 11.1167 22 12.5C22 13.8833 21.7373 15.1833 21.212 16.4C20.6873 17.6167 19.975 18.675 19.075 19.575C18.175 20.475 17.1167 21.1873 15.9 21.712C14.6833 22.2373 13.3833 22.5 12 22.5ZM12 20.5C14.2333 20.5 16.125 19.725 17.675 18.175C19.225 16.625 20 14.7333 20 12.5C20 10.2667 19.225 8.375 17.675 6.825C16.125 5.275 14.2333 4.5 12 4.5C9.76667 4.5 7.875 5.275 6.325 6.825C4.775 8.375 4 10.2667 4 12.5C4 14.7333 4.775 16.625 6.325 18.175C7.875 19.725 9.76667 20.5 12 20.5Z" fill="#111111"/>
</g>
</svg>
