<svg width="16" height="16" viewBox="0 0 16 16" fill="none" xmlns="http://www.w3.org/2000/svg">
<circle cx="8" cy="8" r="8" fill="#EEEFF2"/>
<path d="M8.05335 7.87366C8.04335 7.87366 8.03669 7.87366 8.02669 7.87366C8.01002 7.87033 7.98669 7.87033 7.96669 7.87366C7.00002 7.84366 6.27002 7.08366 6.27002 6.14699C6.27002 5.19366 7.04669 4.41699 8.00002 4.41699C8.95335 4.41699 9.73002 5.19366 9.73002 6.14699C9.72669 7.08366 8.99335 7.84366 8.06335 7.87366C8.06002 7.87366 8.05669 7.87366 8.05335 7.87366ZM8.00002 4.91699C7.32335 4.91699 6.77002 5.47033 6.77002 6.14699C6.77002 6.81366 7.29002 7.35033 7.95335 7.37366C7.97002 7.37033 8.01669 7.37033 8.06002 7.37366C8.71335 7.34366 9.22669 6.80699 9.23002 6.14699C9.23002 5.47033 8.67669 4.91699 8.00002 4.91699Z" fill="#718096"/>
<path d="M8.05654 11.5163C7.4032 11.5163 6.74654 11.3497 6.24987 11.0163C5.78654 10.7097 5.5332 10.2897 5.5332 9.83301C5.5332 9.37634 5.78654 8.95301 6.24987 8.64301C7.24987 7.97967 8.86987 7.97967 9.8632 8.64301C10.3232 8.94967 10.5799 9.36967 10.5799 9.82634C10.5799 10.283 10.3265 10.7063 9.8632 11.0163C9.3632 11.3497 8.70987 11.5163 8.05654 11.5163ZM6.52654 9.06301C6.20654 9.27634 6.0332 9.54967 6.0332 9.83634C6.0332 10.1197 6.20987 10.393 6.52654 10.603C7.35654 11.1597 8.75654 11.1597 9.58654 10.603C9.90654 10.3897 10.0799 10.1163 10.0799 9.82967C10.0799 9.54634 9.9032 9.27301 9.58654 9.06301C8.75654 8.50967 7.35654 8.50967 6.52654 9.06301Z" fill="#718096"/>
</svg>
