<svg width="16" height="16" viewBox="0 0 16 16" fill="none" xmlns="http://www.w3.org/2000/svg">
<rect x="0.5" y="0.5" width="15" height="15" rx="7.5" stroke="#8CC63F"/>
<path d="M7.24139 12V6.54545H8.75417V12H7.24139ZM8.00133 5.84233C7.77643 5.84233 7.58348 5.76776 7.4225 5.61861C7.26388 5.46709 7.18457 5.28598 7.18457 5.07528C7.18457 4.86695 7.26388 4.68821 7.4225 4.53906C7.58348 4.38755 7.77643 4.31179 8.00133 4.31179C8.22624 4.31179 8.418 4.38755 8.57662 4.53906C8.7376 4.68821 8.81809 4.86695 8.81809 5.07528C8.81809 5.28598 8.7376 5.46709 8.57662 5.61861C8.418 5.76776 8.22624 5.84233 8.00133 5.84233Z" fill="#8CC63F"/>
</svg>
